<svg version="1" xmlns="http://www.w3.org/2000/svg" viewBox="0 0 330 330"><path d="M315 120h-23l-5-13 16-16c6-6 6-16 0-21l-43-43a15 15 0 0 0-21 0l-16 16-13-5V15c0-8-7-15-15-15h-60c-8 0-15 7-15 15v23l-13 5-16-16c-6-6-16-6-21 0L27 70c-6 5-6 15 0 21l16 16-5 13H15c-8 0-15 7-15 15v60c0 8 7 15 15 15h23l5 13-16 16a15 15 0 0 0 0 21l43 43c5 6 15 6 21 0l16-16 13 5v23c0 8 7 15 15 15h60c8 0 15-7 15-15v-23l13-5 16 16c6 6 16 6 21 0l43-43c6-5 6-15 0-21l-16-16 5-13h23c8 0 15-7 15-15v-60c0-8-7-15-15-15zm-15 60h-19c-7 0-13 5-14 11-3 10-7 19-12 27-3 6-2 14 3 19l13 13-21 21-13-13c-5-5-13-6-19-3-8 5-17 9-27 12-6 1-11 7-11 14v19h-30v-19c0-7-5-13-11-14-10-3-19-7-27-12-6-3-14-2-19 3l-13 13-21-21 13-13c5-5 6-13 3-19-5-8-9-17-12-27-1-6-7-11-14-11H30v-30h19c7 0 13-5 14-11 3-10 7-19 12-27 3-6 2-14-3-19L59 80l21-21 13 13c5 5 13 6 19 3 8-5 17-9 27-12 6-1 11-7 11-14V30h30v19c0 7 5 13 11 14 10 3 19 7 27 12 6 3 14 2 19-3l13-13 21 21-13 13c-5 5-6 13-3 19 5 8 9 17 12 27 1 6 7 11 14 11h19v30z"/><path d="M186 132l-34 35-9-10a15 15 0 1 0-22 22l20 20a15 15 0 0 0 22 0l45-45a15 15 0 1 0-22-22z"/></svg>